<svg xmlns="http://www.w3.org/2000/svg" width="197.909" height="203.757" viewBox="0 0 197.909 203.757">
  <g id="Group_293" data-name="Group 293" transform="translate(-379.046 1248.256)">
    <path id="Subtraction_7" data-name="Subtraction 7" d="M20.586,197.385v0c.083-.165,2.064-4.113,4.245-9.726,2.032-5.231,4.636-12.975,5.5-20.16a97.171,97.171,0,0,1-22.17-31.442,96.449,96.449,0,0,1-6.048-18.77A97.62,97.62,0,0,1,0,97.06c0-.324,0-.607,0-.863a96.964,96.964,0,0,1,77.3-94.2c.386-.123.8-.241,1.243-.351A90.566,90.566,0,0,1,101.23-.818c6.638,0,14.453.413,24.595,1.3,3.389.3,6.971.447,10.647.447a166.182,166.182,0,0,0,25.858-2.151c6.65-1.062,10.951-2.14,10.994-2.151-.015.03-2.022,4-4.246,9.729-2.032,5.231-4.636,12.975-5.5,20.16a97.168,97.168,0,0,1,22.169,31.441,96.446,96.446,0,0,1,6.048,18.77,97.624,97.624,0,0,1,2.112,20.225v.105a96.968,96.968,0,0,1-77.295,94.96c-.38.121-.8.24-1.251.353a87.551,87.551,0,0,1-22.678,2.647c-6.844,0-15.377-.514-26.853-1.618-4.048-.389-8.169-.587-12.25-.587A124.924,124.924,0,0,0,29.664,195.1a76.107,76.107,0,0,0-9.076,2.285ZM56.321,95.128h23.2l4.1,13.119h18.184L75.856,38.019H59.938L34.182,108.247H52.269l4.052-13.119Zm77.85-60.968v74.087h16.3V34.16Zm-27.157,0v74.087h16.3V34.16Zm-31.545,47.9h-15.1L67.9,57.7l7.572,24.357Z" transform="translate(383.046 -1241.885)" fill="#421414"/>
    <path id="Subtraction_8" data-name="Subtraction 8" d="M20.586,197.385v0c.083-.165,2.064-4.113,4.245-9.726,2.032-5.231,4.636-12.975,5.5-20.16a97.171,97.171,0,0,1-22.17-31.442,96.449,96.449,0,0,1-6.048-18.77A97.62,97.62,0,0,1,0,97.06c0-.324,0-.607,0-.863a96.964,96.964,0,0,1,77.3-94.2c.386-.123.8-.241,1.243-.351A90.566,90.566,0,0,1,101.23-.818c6.638,0,14.453.413,24.595,1.3,3.389.3,6.971.447,10.647.447a166.182,166.182,0,0,0,25.858-2.151c6.65-1.062,10.951-2.14,10.994-2.151-.015.03-2.022,4-4.246,9.729-2.032,5.231-4.636,12.975-5.5,20.16a97.168,97.168,0,0,1,22.169,31.441,96.446,96.446,0,0,1,6.048,18.77,97.624,97.624,0,0,1,2.112,20.225v.105a96.968,96.968,0,0,1-77.295,94.96c-.38.121-.8.24-1.251.353a87.551,87.551,0,0,1-22.678,2.647c-6.844,0-15.377-.514-26.853-1.618-4.048-.389-8.169-.587-12.25-.587A124.924,124.924,0,0,0,29.664,195.1a76.107,76.107,0,0,0-9.076,2.285ZM56.321,95.128h23.2l4.1,13.119h18.184L75.856,38.019H59.938L34.182,108.247H52.269l4.052-13.119Zm77.85-60.968v74.087h16.3V34.16Zm-27.157,0v74.087h16.3V34.16Zm-31.545,47.9h-15.1L67.9,57.7l7.572,24.357Z" transform="translate(381.046 -1242.885)" fill="#290c0c"/>
    <g id="Group_292" data-name="Group 292" transform="translate(-172 37)">
      <path id="Subtraction_2" data-name="Subtraction 2" d="M20.586,197.385v0c.083-.165,2.064-4.113,4.245-9.726,2.032-5.231,4.636-12.975,5.5-20.16a97.171,97.171,0,0,1-22.17-31.442,96.449,96.449,0,0,1-6.048-18.77A97.62,97.62,0,0,1,0,97.06c0-.324,0-.607,0-.863a96.964,96.964,0,0,1,77.3-94.2c.386-.123.8-.241,1.243-.351A90.566,90.566,0,0,1,101.23-.818c6.638,0,14.453.413,24.595,1.3,3.389.3,6.971.447,10.647.447a166.182,166.182,0,0,0,25.858-2.151c6.65-1.062,10.951-2.14,10.994-2.151-.015.03-2.022,4-4.246,9.729-2.032,5.231-4.636,12.975-5.5,20.16a97.168,97.168,0,0,1,22.169,31.441,96.446,96.446,0,0,1,6.048,18.77,97.624,97.624,0,0,1,2.112,20.225v.105a96.968,96.968,0,0,1-77.295,94.96c-.38.121-.8.24-1.251.353a87.551,87.551,0,0,1-22.678,2.647c-6.844,0-15.377-.514-26.853-1.618-4.048-.389-8.169-.587-12.25-.587A124.924,124.924,0,0,0,29.664,195.1a76.107,76.107,0,0,0-9.076,2.285ZM56.321,95.128h23.2l4.1,13.119h18.184L75.856,38.019H59.938L34.182,108.247H52.269l4.052-13.119Zm77.85-60.968v74.087h16.3V34.16Zm-27.157,0v74.087h16.3V34.16Zm-31.545,47.9h-15.1L67.9,57.7l7.572,24.357Z" transform="translate(551.046 -1281.885)" fill="#fff"/>
      <g id="Path_1061" data-name="Path 1061" transform="translate(660.492 -1124.707)" fill="#b354ef">
        <path d="M 35.7669792175293 -5.685153484344482 C 33.42921829223633 -5.685153484344482 31.24895858764648 -6.110993385314941 29.2867488861084 -6.95085334777832 C 27.26926803588867 -7.81437349319458 25.70878791809082 -9.052443504333496 24.64865875244141 -10.6306734085083 C 23.5851879119873 -12.2138729095459 23.04595947265625 -14.04703330993652 23.04595947265625 -16.07921409606934 L 23.04595947265625 -17.07921409606934 L 24.04595947265625 -17.07921409606934 L 26.69611930847168 -17.07921409606934 L 27.69611930847168 -17.07921409606934 L 27.69611930847168 -16.07921409606934 C 27.69611930847168 -14.17659282684326 28.37969779968262 -12.72266292572021 29.78593826293945 -11.63436317443848 C 31.2507381439209 -10.50074291229248 33.2630500793457 -9.925943374633789 35.7669792175293 -9.925943374633789 C 37.98146057128906 -9.925943374633789 39.76242065429688 -10.4051628112793 41.06039810180664 -11.35029315948486 C 42.27692031860352 -12.23609352111816 42.86827850341797 -13.37417316436768 42.86827850341797 -14.8295431137085 C 42.86827850341797 -16.26771354675293 42.38749694824219 -17.3655834197998 41.39846801757812 -18.18590354919434 C 40.29168701171875 -19.10387420654297 38.16098785400391 -20.01031303405762 35.06555938720703 -20.88004302978516 C 31.67410850524902 -21.83296394348145 29.24549865722656 -22.85867309570312 27.64095878601074 -24.01580238342285 C 25.25048828125 -25.72787284851074 24.03707885742188 -28.01665306091309 24.03707885742188 -30.81667327880859 C 24.03707885742188 -33.53339385986328 25.16669845581055 -35.76939392089844 27.39456939697266 -37.46256256103516 C 29.53833961486816 -39.09184265136719 32.28998947143555 -39.91796493530273 35.57307052612305 -39.91796493530273 C 37.79971694946289 -39.91796493530273 39.82867813110352 -39.47780227661133 41.60360717773438 -38.60970306396484 C 43.40995025634766 -37.72627258300781 44.83351898193359 -36.47251510620117 45.83475875854492 -34.88325500488281 C 46.83758926391602 -33.29146194458008 47.3460578918457 -31.49557304382324 47.3460578918457 -29.54546356201172 L 47.3460578918457 -28.54546356201172 L 46.3460578918457 -28.54546356201172 L 43.67435836791992 -28.54546356201172 L 42.67435836791992 -28.54546356201172 L 42.67435836791992 -29.54546356201172 C 42.67435836791992 -31.40316390991211 42.06549835205078 -32.84641265869141 40.81298828125 -33.95769500732422 C 39.54314804077148 -35.08437347412109 37.78018951416016 -35.65564346313477 35.57307052612305 -35.65564346313477 C 33.40726852416992 -35.65564346313477 31.68130874633789 -35.18319320678711 30.44311904907227 -34.25142288208008 C 29.27608871459961 -33.37319183349609 28.70877838134766 -32.26377487182617 28.70877838134766 -30.85976409912109 C 28.70877838134766 -29.57731246948242 29.21114921569824 -28.55877304077148 30.24457931518555 -27.74595260620117 C 31.41127967834473 -26.82832336425781 33.35786819458008 -25.99318313598633 36.03030014038086 -25.26372337341309 C 38.95388793945312 -24.4656925201416 41.12276840209961 -23.65210342407227 42.6609001159668 -22.77644348144531 C 44.24773788452148 -21.87303352355957 45.46685791015625 -20.7647533416748 46.28437042236328 -19.48238372802734 C 47.11752700805664 -18.17546272277832 47.53997802734375 -16.6245231628418 47.53997802734375 -14.87263298034668 C 47.53997802734375 -12.08349323272705 46.40974044799805 -9.814403533935547 44.18066024780273 -8.128393173217773 C 42.03722763061523 -6.50717306137085 39.20645904541016 -5.685153484344482 35.7669792175293 -5.685153484344482 Z" stroke="none"/>
        <path d="M 35.7669792175293 -6.685153484344482 C 38.99887847900391 -6.685153484344482 41.60235977172852 -7.432083129882812 43.57740783691406 -8.925943374633789 C 45.55244827270508 -10.41980361938477 46.53997802734375 -12.40203285217285 46.53997802734375 -14.87263298034668 C 46.53997802734375 -16.43831253051758 46.17369842529297 -17.79571342468262 45.44113922119141 -18.94482231140137 C 44.70856857299805 -20.09395408630371 43.61690902709961 -21.08147239685059 42.1661491394043 -21.90740394592285 C 40.71537780761719 -22.73333358764648 38.58232879638672 -23.53053283691406 35.7669792175293 -24.29901313781738 C 32.95163726806641 -25.06748390197754 30.90475845336914 -25.95446395874023 29.62636947631836 -26.9599437713623 C 28.34797859191895 -27.96542358398438 27.70877838134766 -29.2653636932373 27.70877838134766 -30.85976409912109 C 27.70877838134766 -32.58345413208008 28.41979789733887 -33.98033142089844 29.84182929992676 -35.05045318603516 C 31.26386833190918 -36.12058258056641 33.17427825927734 -36.65564346313477 35.57307052612305 -36.65564346313477 C 38.04367065429688 -36.65564346313477 40.01153945922852 -36.00566482543945 41.47666931152344 -34.70571136474609 C 42.94179916381836 -33.40578460693359 43.67435836791992 -31.68568420410156 43.67435836791992 -29.54546356201172 L 46.3460578918457 -29.54546356201172 C 46.3460578918457 -31.31222343444824 45.89360046386719 -32.91381454467773 44.98867034912109 -34.35021209716797 C 44.0837287902832 -35.78661346435547 42.80892944335938 -36.90702438354492 41.16424942016602 -37.71139144897461 C 39.51957702636719 -38.51578140258789 37.65584945678711 -38.91796493530273 35.57307052612305 -38.91796493530273 C 32.49916839599609 -38.91796493530273 29.97469902038574 -38.16745376586914 27.99964904785156 -36.66640472412109 C 26.02459907531738 -35.16537475585938 25.03707885742188 -33.2154541015625 25.03707885742188 -30.81667327880859 C 25.03707885742188 -28.34607315063477 26.10000801086426 -26.34946250915527 28.22587966918945 -24.8268928527832 C 29.7197380065918 -23.74958419799805 32.08979797363281 -22.7548828125 35.3360595703125 -21.84276390075684 C 38.58232879638672 -20.9306526184082 40.8159294128418 -19.96826362609863 42.03686904907227 -18.95560264587402 C 43.25780868530273 -17.94294357299805 43.86827850341797 -16.56759262084961 43.86827850341797 -14.8295431137085 C 43.86827850341797 -13.04841327667236 43.1285285949707 -11.61918354034424 41.64904022216797 -10.54189300537109 C 40.16954040527344 -9.464592933654785 38.20885848999023 -8.925943374633789 35.7669792175293 -8.925943374633789 C 33.02346038818359 -8.925943374633789 30.82575798034668 -9.565143585205078 29.17389869689941 -10.84353351593018 C 27.52203941345215 -12.12193298339844 26.69611930847168 -13.86715316772461 26.69611930847168 -16.07921409606934 L 24.04595947265625 -16.07921409606934 C 24.04595947265625 -14.24062347412109 24.5235595703125 -12.61030292510986 25.47876930236816 -11.18827342987061 C 26.43397903442383 -9.766233444213867 27.83446884155273 -8.660202980041504 29.68023872375488 -7.87018346786499 C 31.52600860595703 -7.080163478851318 33.55492782592773 -6.685153484344482 35.7669792175293 -6.685153484344482 M 35.7669792175293 -4.685153484344482 C 33.29319000244141 -4.685153484344482 30.98052787780762 -5.13813304901123 28.89325904846191 -6.03152322769165 C 26.69543838500977 -6.972233295440674 24.98805809020996 -8.332003593444824 23.81854820251465 -10.073073387146 C 22.64234924316406 -11.82410335540771 22.04595947265625 -13.84485340118408 22.04595947265625 -16.07921409606934 L 22.04595947265625 -18.07921409606934 L 24.04595947265625 -18.07921409606934 L 26.69611930847168 -18.07921409606934 L 28.69611930847168 -18.07921409606934 L 28.69611930847168 -16.07921409606934 C 28.69611930847168 -14.48486328125 29.23689842224121 -13.32377338409424 30.39796829223633 -12.42519283294678 C 31.68342781066895 -11.43036365509033 33.48983001708984 -10.92594337463379 35.7669792175293 -10.92594337463379 C 37.76546859741211 -10.92594337463379 39.348388671875 -11.34070301055908 40.47176742553711 -12.15869331359863 C 41.43758010864258 -12.86194324493408 41.86827850341797 -13.6856632232666 41.86827850341797 -14.8295431137085 C 41.86827850341797 -15.96717357635498 41.51613998413086 -16.78910255432129 40.76006698608398 -17.41619300842285 C 40.0737190246582 -17.98546409606934 38.48170852661133 -18.88148307800293 34.79507064819336 -19.91732406616211 C 31.29070472717285 -20.90196228027344 28.76008224487305 -21.97665405273438 27.05881500244141 -23.20270538330078 C 25.74936676025391 -24.14104080200195 24.74348640441895 -25.25922775268555 24.06886863708496 -26.52641296386719 C 23.38421821594238 -27.81244277954102 23.03707885742188 -29.25589370727539 23.03707885742188 -30.81667327880859 C 23.03707885742188 -32.32735443115234 23.35885810852051 -33.72870254516602 23.99348831176758 -34.9818115234375 C 24.62284851074219 -36.22451400756836 25.56355857849121 -37.32703399658203 26.78948783874512 -38.25873184204102 C 29.11122894287109 -40.02326202392578 32.06644821166992 -40.91796493530273 35.57307052612305 -40.91796493530273 C 37.95328903198242 -40.91796493530273 40.13007736206055 -40.4435920715332 42.0429573059082 -39.50802230834961 C 44.01868057250977 -38.54174423217773 45.57909774780273 -37.16508483886719 46.68084716796875 -35.41629409790039 C 47.78579711914062 -33.66239166259766 48.3460578918457 -31.68716239929199 48.3460578918457 -29.54546356201172 L 48.3460578918457 -27.54546356201172 L 46.3460578918457 -27.54546356201172 L 43.67435836791992 -27.54546356201172 L 41.67435836791992 -27.54546356201172 L 41.67435836791992 -29.54546356201172 C 41.67435836791992 -31.12221336364746 41.18976974487305 -32.28654479980469 40.14931869506836 -33.20967483520508 C 39.05268859863281 -34.18266296386719 37.55578994750977 -34.65564346313477 35.57307052612305 -34.65564346313477 C 33.62904739379883 -34.65564346313477 32.10538864135742 -34.25081253051758 31.04441833496094 -33.452392578125 C 30.12070846557617 -32.75727462768555 29.70877838134766 -31.95768356323242 29.70877838134766 -30.85976409912109 C 29.70877838134766 -29.87761306762695 30.06468963623047 -29.15969276428223 30.8627986907959 -28.53196334838867 C 31.59221839904785 -27.9582633972168 33.12651824951172 -27.0929126739502 36.29362869262695 -26.22842407226562 C 39.29913711547852 -25.40804290771484 41.54372024536133 -24.56315231323242 43.1556396484375 -23.64547348022461 C 44.88535690307617 -22.66073417663574 46.22171020507812 -21.44093322753906 47.12759017944336 -20.01993370056152 C 48.06477737426758 -18.54984283447266 48.53997802734375 -16.81803321838379 48.53997802734375 -14.87263298034668 C 48.53997802734375 -13.33083343505859 48.22018814086914 -11.90717315673828 47.5894775390625 -10.64117336273193 C 46.95914840698242 -9.375923156738281 46.01520919799805 -8.262163162231445 44.78389739990234 -7.330833435058594 C 42.46286773681641 -5.575283050537109 39.42914962768555 -4.685153484344482 35.7669792175293 -4.685153484344482 Z" stroke="none" fill="#b354ef"/>
      </g>
      <g id="Path_1062" data-name="Path 1062" transform="translate(660.492 -1124.707)" fill="#ef5454">
        <path d="M 13.74742317199707 -6.116081237792969 L 12.9713134765625 -6.116081237792969 L 10.42888355255127 -6.116081237792969 L 9.677483558654785 -6.116081237792969 L 9.4683837890625 -6.837801456451416 L 2.530205011367798 -30.78502464294434 L -4.578016757965088 -6.831591129302979 L -4.790346622467041 -6.116081237792969 L -5.536696434020996 -6.116081237792969 L -8.079126358032227 -6.116081237792969 L -8.855756759643555 -6.116081237792969 L -9.048007011413574 -6.868541240692139 L -17.0631275177002 -38.239501953125 L -17.38186645507812 -39.48704147338867 L -16.09424591064453 -39.48704147338867 L -13.3794469833374 -39.48704147338867 L -12.59884643554688 -39.48704147338867 L -12.40935707092285 -38.72978973388672 L -6.678126811981201 -15.82640171051025 L -6.672216415405273 -15.80280113220215 L -6.667466640472412 -15.77893161773682 L -6.559276103973389 -15.23558139801025 L -6.462676525115967 -15.61495113372803 L -6.458096504211426 -15.63291168212891 L -6.452866554260254 -15.65069103240967 L 0.355663388967514 -38.7695426940918 L 0.5669733881950378 -39.48704147338867 L 1.3149334192276 -39.48704147338867 L 3.706533432006836 -39.48704147338867 L 4.457173347473145 -39.48704147338867 L 4.666763305664062 -38.76625061035156 L 11.3891134262085 -15.64740180969238 L 11.3947229385376 -15.6281213760376 L 11.39954376220703 -15.6086311340332 L 11.51326751708984 -15.14952564239502 L 11.64803314208984 -15.7896614074707 L 11.65164375305176 -15.80681133270264 L 11.65585327148438 -15.82382106781006 L 17.32244300842285 -38.72721099853516 L 17.51043319702148 -39.48704147338867 L 18.29317283630371 -39.48704147338867 L 21.00797271728516 -39.48704147338867 L 22.29644393920898 -39.48704147338867 L 21.97669410705566 -38.23887252807617 L 13.94003295898438 -6.867911338806152 L 13.74742317199707 -6.116081237792969 Z" stroke="none"/>
        <path d="M 12.9713134765625 -7.116081237792969 L 21.00797271728516 -38.48704147338867 L 18.29317283630371 -38.48704147338867 L 12.62658309936523 -15.58365154266357 L 11.59237384796143 -10.67117118835449 L 10.42888355255127 -15.36819171905518 L 3.706533432006836 -38.48704147338867 L 1.3149334192276 -38.48704147338867 L -5.49359655380249 -15.36819171905518 L -6.67863655090332 -10.71426105499268 L -7.648216724395752 -15.58365154266357 L -13.3794469833374 -38.48704147338867 L -16.09424591064453 -38.48704147338867 L -8.079126358032227 -7.116081237792969 L -5.536696434020996 -7.116081237792969 L 1.745853424072266 -31.6569709777832 L 2.521503448486328 -34.75959014892578 L 3.318703413009644 -31.6569709777832 L 10.42888355255127 -7.116081237792969 L 12.9713134765625 -7.116081237792969 M 14.52353382110596 -5.116081237792969 L 12.9713134765625 -5.116081237792969 L 10.42888355255127 -5.116081237792969 L 8.926083564758301 -5.116081237792969 L 8.507883071899414 -6.559511184692383 L 2.518711566925049 -27.23122596740723 L -3.619336605072021 -6.547101497650146 L -4.043996810913086 -5.116081237792969 L -5.536696434020996 -5.116081237792969 L -8.079126358032227 -5.116081237792969 L -9.632386207580566 -5.116081237792969 L -10.01687622070312 -6.620991230010986 L -18.03199577331543 -37.99195098876953 L -18.66948699951172 -40.48704147338867 L -16.09424591064453 -40.48704147338867 L -13.3794469833374 -40.48704147338867 L -11.81824684143066 -40.48704147338867 L -11.43926620483398 -38.97254180908203 L -6.472450733184814 -19.12393760681152 L -0.603596568107605 -39.05205154418945 L -0.1809965968132019 -40.48704147338867 L 1.3149334192276 -40.48704147338867 L 3.706533432006836 -40.48704147338867 L 5.207823276519775 -40.48704147338867 L 5.626993179321289 -39.04545974731445 L 11.43182754516602 -19.0820426940918 L 16.35171318054199 -38.96738052368164 L 16.72769355773926 -40.48704147338867 L 18.29317283630371 -40.48704147338867 L 21.00797271728516 -40.48704147338867 L 23.58492279052734 -40.48704147338867 L 22.94540405273438 -37.9907112121582 L 14.9087438583374 -6.619751453399658 L 14.52353382110596 -5.116081237792969 Z" stroke="none" fill="#ef5454"/>
      </g>
      <g id="Path_1063" data-name="Path 1063" transform="translate(660.492 -1124.707)" fill="#3cc686">
        <path d="M -21.68042945861816 -6.116081237792969 L -22.68042945861816 -6.116081237792969 L -42.20111083984375 -6.116081237792969 L -43.20111083984375 -6.116081237792969 L -43.20111083984375 -7.116081237792969 L -43.20111083984375 -38.48704147338867 L -43.20111083984375 -39.48704147338867 L -42.20111083984375 -39.48704147338867 L -22.78815841674805 -39.48704147338867 L -21.78815841674805 -39.48704147338867 L -21.78815841674805 -38.48704147338867 L -21.78815841674805 -36.2247200012207 L -21.78815841674805 -35.2247200012207 L -22.78815841674805 -35.2247200012207 L -38.55094909667969 -35.2247200012207 L -38.55094909667969 -25.39597129821777 L -24.87812995910645 -25.39597129821777 L -23.87812995910645 -25.39597129821777 L -23.87812995910645 -24.39597129821777 L -23.87812995910645 -22.15518188476562 L -23.87812995910645 -21.15518188476562 L -24.87812995910645 -21.15518188476562 L -38.55094909667969 -21.15518188476562 L -38.55094909667969 -10.35686111450195 L -22.68042945861816 -10.35686111450195 L -21.68042945861816 -10.35686111450195 L -21.68042945861816 -9.356861114501953 L -21.68042945861816 -7.116081237792969 L -21.68042945861816 -6.116081237792969 Z" stroke="none"/>
        <path d="M -22.68042945861816 -7.116081237792969 L -22.68042945861816 -9.356861114501953 L -39.55094909667969 -9.356861114501953 L -39.55094909667969 -22.15518188476562 L -24.87812995910645 -22.15518188476562 L -24.87812995910645 -24.39597129821777 L -39.55094909667969 -24.39597129821777 L -39.55094909667969 -36.2247200012207 L -22.78815841674805 -36.2247200012207 L -22.78815841674805 -38.48704147338867 L -42.20111083984375 -38.48704147338867 L -42.20111083984375 -7.116081237792969 L -22.68042945861816 -7.116081237792969 M -20.68042945861816 -5.116081237792969 L -22.68042945861816 -5.116081237792969 L -42.20111083984375 -5.116081237792969 L -44.20111083984375 -5.116081237792969 L -44.20111083984375 -7.116081237792969 L -44.20111083984375 -38.48704147338867 L -44.20111083984375 -40.48704147338867 L -42.20111083984375 -40.48704147338867 L -22.78815841674805 -40.48704147338867 L -20.78815841674805 -40.48704147338867 L -20.78815841674805 -38.48704147338867 L -20.78815841674805 -36.2247200012207 L -20.78815841674805 -34.2247200012207 L -22.78815841674805 -34.2247200012207 L -37.55094909667969 -34.2247200012207 L -37.55094909667969 -26.39597129821777 L -24.87812995910645 -26.39597129821777 L -22.87812995910645 -26.39597129821777 L -22.87812995910645 -24.39597129821777 L -22.87812995910645 -22.15518188476562 L -22.87812995910645 -20.15518188476562 L -24.87812995910645 -20.15518188476562 L -37.55094909667969 -20.15518188476562 L -37.55094909667969 -11.35686111450195 L -22.68042945861816 -11.35686111450195 L -20.68042945861816 -11.35686111450195 L -20.68042945861816 -9.356861114501953 L -20.68042945861816 -7.116081237792969 L -20.68042945861816 -5.116081237792969 Z" stroke="none" fill="#3cc686"/>
      </g>
      <g id="Path_1064" data-name="Path 1064" transform="translate(660.492 -1124.707)" fill="#5a99ff">
        <path d="M -49.17313385009766 -6.116081237792969 L -50.17313385009766 -6.116081237792969 L -52.82328414916992 -6.116081237792969 L -53.3562126159668 -6.116081237792969 L -53.65338134765625 -6.55846118927002 L -69.85729217529297 -30.68039512634277 L -69.85729217529297 -7.116081237792969 L -69.85729217529297 -6.116081237792969 L -70.85729217529297 -6.116081237792969 L -73.52899169921875 -6.116081237792969 L -74.52899169921875 -6.116081237792969 L -74.52899169921875 -7.116081237792969 L -74.52899169921875 -38.48704147338867 L -74.52899169921875 -39.48704147338867 L -73.52899169921875 -39.48704147338867 L -70.85729217529297 -39.48704147338867 L -70.32448577880859 -39.48704147338867 L -70.02729034423828 -39.0448112487793 L -53.80174255371094 -14.90011310577393 L -53.80174255371094 -38.48704147338867 L -53.80174255371094 -39.48704147338867 L -52.80174255371094 -39.48704147338867 L -50.17313385009766 -39.48704147338867 L -49.17313385009766 -39.48704147338867 L -49.17313385009766 -38.48704147338867 L -49.17313385009766 -7.116081237792969 L -49.17313385009766 -6.116081237792969 Z" stroke="none"/>
        <path d="M -50.17313385009766 -7.116081237792969 L -50.17313385009766 -38.48704147338867 L -52.80174255371094 -38.48704147338867 L -52.80174255371094 -11.61918163299561 L -70.85729217529297 -38.48704147338867 L -73.52899169921875 -38.48704147338867 L -73.52899169921875 -7.116081237792969 L -70.85729217529297 -7.116081237792969 L -70.85729217529297 -33.9623908996582 L -52.82328414916992 -7.116081237792969 L -50.17313385009766 -7.116081237792969 M -48.17313385009766 -5.116081237792969 L -50.17313385009766 -5.116081237792969 L -52.82328414916992 -5.116081237792969 L -53.88914108276367 -5.116081237792969 L -54.48348236083984 -6.00084114074707 L -68.85729217529297 -27.39839935302734 L -68.85729217529297 -7.116081237792969 L -68.85729217529297 -5.116081237792969 L -70.85729217529297 -5.116081237792969 L -73.52899169921875 -5.116081237792969 L -75.52899169921875 -5.116081237792969 L -75.52899169921875 -7.116081237792969 L -75.52899169921875 -38.48704147338867 L -75.52899169921875 -40.48704147338867 L -73.52899169921875 -40.48704147338867 L -70.85729217529297 -40.48704147338867 L -69.79167175292969 -40.48704147338867 L -69.19730377197266 -39.60258102416992 L -54.80174255371094 -18.1810302734375 L -54.80174255371094 -38.48704147338867 L -54.80174255371094 -40.48704147338867 L -52.80174255371094 -40.48704147338867 L -50.17313385009766 -40.48704147338867 L -48.17313385009766 -40.48704147338867 L -48.17313385009766 -38.48704147338867 L -48.17313385009766 -7.116081237792969 L -48.17313385009766 -5.116081237792969 Z" stroke="none" fill="#5a99ff"/>
      </g>
    </g>
  </g>
</svg>
