<?xml version="1.0" encoding="utf-8"?>
<!-- Generator: Adobe Illustrator 23.0.2, SVG Export Plug-In . SVG Version: 6.00 Build 0)  -->
<svg version="1.1" id="Layer_1" xmlns="http://www.w3.org/2000/svg" xmlns:xlink="http://www.w3.org/1999/xlink" x="0px" y="0px"
	 viewBox="0 0 197.9 203.8" style="enable-background:new 0 0 197.9 203.8;" xml:space="preserve">
<style type="text/css">
	.st0{fill:#FFFFFF;}
	.st1{fill:#B354EF;}
	.st2{fill:#EF5454;}
	.st3{fill:#3CC686;}
	.st4{fill:#5A99FF;}
</style>
<g id="Group_293" transform="translate(-379.046 1248.256)">
	<g id="Group_292" transform="translate(-172 37)">
		<path id="Subtraction_2" class="st0" d="M571.6-1084.5L571.6-1084.5c0.1-0.2,2.1-4.1,4.2-9.7c2-5.2,4.6-13,5.5-20.2
			c-9.4-8.9-16.9-19.6-22.2-31.4c-2.7-6-4.7-12.3-6-18.8c-1.4-6.7-2.1-13.4-2.1-20.2c0-0.3,0-0.6,0-0.9
			c0.4-45.7,32.6-84.9,77.3-94.2c0.4-0.1,0.8-0.2,1.2-0.4c7.4-1.8,15.1-2.6,22.7-2.5c6.6,0,14.5,0.4,24.6,1.3
			c3.4,0.3,7,0.4,10.6,0.4c8.7,0,17.3-0.8,25.9-2.2c6.6-1.1,11-2.1,11-2.2c0,0-2,4-4.2,9.7c-2,5.2-4.6,13-5.5,20.2
			c9.4,8.9,16.9,19.6,22.2,31.4c2.7,6,4.7,12.3,6,18.8c1.4,6.6,2.1,13.4,2.1,20.2v0.1c0,46-32.3,85.6-77.3,95
			c-0.4,0.1-0.8,0.2-1.3,0.4c-7.4,1.9-15,2.8-22.7,2.6c-6.8,0-15.4-0.5-26.9-1.6c-4-0.4-8.2-0.6-12.2-0.6c-8,0-16,0.8-23.9,2.3
			C577.6-1086.2,574.6-1085.4,571.6-1084.5L571.6-1084.5z M607.4-1186.8h23.2l4.1,13.1h18.2l-25.9-70.2H611l-25.8,70.2h18.1
			L607.4-1186.8z M685.2-1247.7v74.1h16.3v-74.1H685.2z M658.1-1247.7v74.1h16.3v-74.1H658.1z M626.5-1199.8L626.5-1199.8l-15.1,0
			l7.5-24.4"/>
		<g id="Path_1061" transform="translate(660.492 -1124.707)">
			<path class="st1" d="M35.8-5.7c-2.3,0-4.5-0.4-6.5-1.3c-2-0.9-3.6-2.1-4.6-3.7C23.6-12.2,23-14,23-16.1v-1h1h2.7h1v1
				c0,1.9,0.7,3.4,2.1,4.4c1.5,1.1,3.5,1.7,6,1.7c2.2,0,4-0.5,5.3-1.4c1.2-0.9,1.8-2,1.8-3.5c0-1.4-0.5-2.5-1.5-3.4
				c-1.1-0.9-3.2-1.8-6.3-2.7c-3.4-1-5.8-2-7.4-3.1c-2.4-1.7-3.6-4-3.6-6.8c0-2.7,1.1-5,3.4-6.6c2.1-1.6,4.9-2.5,8.2-2.5
				c2.2,0,4.3,0.4,6,1.3c1.8,0.9,3.2,2.1,4.2,3.7c1,1.6,1.5,3.4,1.5,5.3v1h-1h-2.7h-1v-1c0-1.9-0.6-3.3-1.9-4.4
				c-1.3-1.1-3-1.7-5.2-1.7c-2.2,0-3.9,0.5-5.1,1.4c-1.2,0.9-1.7,2-1.7,3.4c0,1.3,0.5,2.3,1.5,3.1c1.2,0.9,3.1,1.8,5.8,2.5
				c2.9,0.8,5.1,1.6,6.6,2.5c1.6,0.9,2.8,2,3.6,3.3c0.8,1.3,1.3,2.9,1.3,4.6c0,2.8-1.1,5.1-3.4,6.7C42-6.5,39.2-5.7,35.8-5.7z"/>
			<path class="st1" d="M35.8-6.7c3.2,0,5.8-0.7,7.8-2.2c2-1.5,3-3.5,3-5.9c0-1.6-0.4-2.9-1.1-4.1c-0.7-1.1-1.8-2.1-3.3-3
				c-1.5-0.8-3.6-1.6-6.4-2.4C33-25.1,30.9-26,29.6-27c-1.3-1-1.9-2.3-1.9-3.9c0-1.7,0.7-3.1,2.1-4.2c1.4-1.1,3.3-1.6,5.7-1.6
				c2.5,0,4.4,0.6,5.9,1.9c1.5,1.3,2.2,3,2.2,5.2h2.7c0-1.8-0.5-3.4-1.4-4.8c-0.9-1.4-2.2-2.6-3.8-3.4c-1.6-0.8-3.5-1.2-5.6-1.2
				c-3.1,0-5.6,0.8-7.6,2.3c-2,1.5-3,3.5-3,5.8c0,2.5,1.1,4.5,3.2,6c1.5,1.1,3.9,2.1,7.1,3c3.2,0.9,5.5,1.9,6.7,2.9
				c1.2,1,1.8,2.4,1.8,4.1c0,1.8-0.7,3.2-2.2,4.3c-1.5,1.1-3.4,1.6-5.9,1.6c-2.7,0-4.9-0.6-6.6-1.9c-1.7-1.3-2.5-3-2.5-5.2H24
				c0,1.8,0.5,3.5,1.4,4.9c1,1.4,2.4,2.5,4.2,3.3S33.6-6.7,35.8-6.7 M35.8-4.7c-2.5,0-4.8-0.5-6.9-1.3c-2.2-0.9-3.9-2.3-5.1-4
				c-1.2-1.8-1.8-3.8-1.8-6v-2h2h2.7h2v2c0,1.6,0.5,2.8,1.7,3.7c1.3,1,3.1,1.5,5.4,1.5c2,0,3.6-0.4,4.7-1.2c1-0.7,1.4-1.5,1.4-2.7
				c0-1.1-0.4-2-1.1-2.6c-0.7-0.6-2.3-1.5-6-2.5c-3.5-1-6-2.1-7.7-3.3c-1.3-0.9-2.3-2.1-3-3.3c-0.7-1.3-1-2.7-1-4.3
				c0-1.5,0.3-2.9,1-4.2c0.6-1.2,1.6-2.3,2.8-3.3c2.3-1.8,5.3-2.7,8.8-2.7c2.4,0,4.6,0.5,6.5,1.4c2,1,3.5,2.3,4.6,4.1
				c1.1,1.8,1.7,3.7,1.7,5.9v2h-2h-2.7h-2v-2c0-1.6-0.5-2.7-1.5-3.7c-1.1-1-2.6-1.4-4.6-1.4c-1.9,0-3.5,0.4-4.5,1.2
				c-0.9,0.7-1.3,1.5-1.3,2.6c0,1,0.4,1.7,1.2,2.3c0.7,0.6,2.3,1.4,5.4,2.3c3,0.8,5.3,1.7,6.9,2.6c1.7,1,3.1,2.2,4,3.6
				c0.9,1.5,1.4,3.2,1.4,5.1c0,1.5-0.3,3-1,4.2C47-9.4,46-8.3,44.8-7.3C42.5-5.6,39.4-4.7,35.8-4.7z"/>
		</g>
		<g id="Path_1062" transform="translate(660.492 -1124.707)">
			<path class="st2" d="M13.7-6.1H13h-2.5H9.7L9.5-6.8L2.5-30.8l-7.1,24l-0.2,0.7h-0.7h-2.5h-0.8L-9-6.9l-8-31.4l-0.3-1.2h1.3h2.7
				h0.8l0.2,0.8l5.7,22.9l0,0l0,0l0.1,0.5l0.1-0.4l0,0l0,0l6.8-23.1l0.2-0.7h0.7h2.4h0.8l0.2,0.7l6.7,23.1l0,0l0,0l0.1,0.5l0.1-0.6
				l0,0l0,0l5.7-22.9l0.2-0.8h0.8H21h1.3L22-38.2l-8,31.4L13.7-6.1z"/>
			<path class="st2" d="M13-7.1l8-31.4h-2.7l-5.7,22.9l-1,4.9l-1.2-4.7L3.7-38.5H1.3l-6.8,23.1l-1.2,4.7l-1-4.9l-5.7-22.9h-2.7
				l8,31.4h2.5l7.3-24.5l0.8-3.1l0.8,3.1l7.1,24.5H13 M14.5-5.1H13h-2.5H8.9L8.5-6.6l-6-20.7L-3.6-6.5L-4-5.1h-1.5h-2.5h-1.6
				L-10-6.6L-18-38l-0.6-2.5h2.6h2.7h1.6l0.4,1.5l5,19.8l5.9-19.9l0.4-1.4h1.5h2.4h1.5L5.6-39l5.8,20L16.4-39l0.4-1.5h1.6H21h2.6
				L22.9-38l-8,31.4L14.5-5.1z"/>
		</g>
		<g id="Path_1063" transform="translate(660.492 -1124.707)">
			<path class="st3" d="M-21.7-6.1h-1h-19.5h-1v-1v-31.4v-1h1h19.4h1v1v2.3v1h-1h-15.8v9.8h13.7h1v1v2.2v1h-1h-13.7v10.8h15.9h1v1
				v2.2V-6.1z"/>
			<path class="st3" d="M-22.7-7.1v-2.2h-16.9v-12.8h14.7v-2.2h-14.7v-11.8h16.8v-2.3h-19.4v31.4H-22.7 M-20.7-5.1h-2h-19.5h-2v-2
				v-31.4v-2h2h19.4h2v2v2.3v2h-2h-14.8v7.8h12.7h2v2v2.2v2h-2h-12.7v8.8h14.9h2v2v2.2V-5.1z"/>
		</g>
		<g id="Path_1064" transform="translate(660.492 -1124.707)">
			<path class="st4" d="M-49.2-6.1h-1h-2.7h-0.5l-0.3-0.4l-16.2-24.1v23.6v1h-1h-2.7h-1v-1v-31.4v-1h1h2.7h0.5L-70-39l16.2,24.1
				v-23.6v-1h1h2.6h1v1v31.4V-6.1z"/>
			<path class="st4" d="M-50.2-7.1v-31.4h-2.6v26.9l-18.1-26.9h-2.7v31.4h2.7V-34l18,26.8H-50.2 M-48.2-5.1h-2h-2.7h-1.1L-54.5-6
				l-14.4-21.4v20.3v2h-2h-2.7h-2v-2v-31.4v-2h2h2.7h1.1l0.6,0.9l14.4,21.4v-20.3v-2h2h2.6h2v2v31.4V-5.1z"/>
		</g>
	</g>
</g>
</svg>
